# MagicaVoxel @ Ephtracy

# group
g gunblade

# material
mtllib gunblade.mtl
usemtl palette

# normals
vn -1 0 0
vn 1 0 0
vn 0 0 1
vn 0 0 -1
vn 0 -1 0
vn 0 1 0

# texcoords
vt 0.763672 0.5
vt 0.990234 0.5
vt 0.994141 0.5

# verts
v -14.5 4 -0.5
v -14.5 4 -1.5
v -14.5 5 -0.5
v -14.5 5 -1.5
v -13.5 5 -0.5
v -13.5 5 -1.5
v -13.5 6 -0.5
v -13.5 6 -1.5
v -12.5 6 -0.5
v -12.5 6 -1.5
v -12.5 7 -0.5
v -12.5 7 -1.5
v -8.5 3 -0.5
v -8.5 3 -1.5
v -8.5 5 -0.5
v -8.5 5 -1.5
v -6.5 5 0.5
v -6.5 5 -0.5
v -6.5 5 -1.5
v -6.5 5 -2.5
v -6.5 6 -0.5
v -6.5 6 -1.5
v -6.5 7 0.5
v -6.5 7 -0.5
v -6.5 7 -1.5
v -6.5 7 -2.5
v -6.5 8 -0.5
v -6.5 8 -1.5
v -5.5 4 -0.5
v -5.5 4 -1.5
v -5.5 5 -0.5
v -5.5 5 -1.5
v 16.5 7 0.5
v 16.5 7 -0.5
v 16.5 7 -1.5
v 16.5 7 -2.5
v 16.5 8 0.5
v 16.5 8 -0.5
v 16.5 8 -1.5
v 16.5 8 -2.5
v 16.5 9 -0.5
v 16.5 9 -1.5
v -10.5 4 -0.5
v -10.5 4 -1.5
v -10.5 5 -0.5
v -10.5 5 -1.5
v -7.5 4 -0.5
v -7.5 4 -1.5
v -7.5 5 -0.5
v -7.5 5 -1.5
v -3.5 5 0.5
v -3.5 5 -0.5
v -3.5 5 -1.5
v -3.5 5 -2.5
v -3.5 7 0.5
v -3.5 7 -0.5
v -3.5 7 -1.5
v -3.5 7 -2.5
v 14.5 3 -0.5
v 14.5 3 -1.5
v 14.5 4 -0.5
v 14.5 4 -1.5
v 15.5 4 -0.5
v 15.5 4 -1.5
v 15.5 5 -0.5
v 15.5 5 -1.5
v 16.5 5 -0.5
v 16.5 5 -1.5
v 16.5 6 -0.5
v 16.5 6 -1.5
v 17.5 6 -0.5
v 17.5 6 -1.5
v 17.5 7 0.5
v 17.5 7 -0.5
v 17.5 7 -1.5
v 17.5 7 -2.5
v 17.5 8 0.5
v 17.5 8 -0.5
v 17.5 8 -1.5
v 17.5 8 -2.5
v 17.5 9 -0.5
v 17.5 9 -1.5
v -6.5 5 0.5
v -6.5 7 0.5
v -3.5 5 0.5
v -3.5 7 0.5
v 16.5 7 0.5
v 16.5 8 0.5
v 17.5 7 0.5
v 17.5 8 0.5
v -14.5 4 -0.5
v -14.5 5 -0.5
v -13.5 5 -0.5
v -13.5 6 -0.5
v -12.5 6 -0.5
v -12.5 7 -0.5
v -10.5 4 -0.5
v -10.5 5 -0.5
v -8.5 3 -0.5
v -8.5 5 -0.5
v -8.5 6 -0.5
v -7.5 4 -0.5
v -7.5 5 -0.5
v -7.5 6 -0.5
v -7.5 7 -0.5
v -6.5 5 -0.5
v -6.5 6 -0.5
v -6.5 7 -0.5
v -6.5 8 -0.5
v -5.5 4 -0.5
v -5.5 5 -0.5
v -4.5 3 -0.5
v -4.5 4 -0.5
v -3.5 4 -0.5
v -3.5 5 -0.5
v -3.5 7 -0.5
v -3.5 8 -0.5
v 14.5 3 -0.5
v 14.5 4 -0.5
v 15.5 4 -0.5
v 15.5 5 -0.5
v 16.5 5 -0.5
v 16.5 6 -0.5
v 16.5 7 -0.5
v 16.5 8 -0.5
v 16.5 9 -0.5
v 17.5 6 -0.5
v 17.5 7 -0.5
v 17.5 8 -0.5
v 17.5 9 -0.5
v -14.5 4 -1.5
v -14.5 5 -1.5
v -13.5 5 -1.5
v -13.5 6 -1.5
v -12.5 6 -1.5
v -12.5 7 -1.5
v -10.5 4 -1.5
v -10.5 5 -1.5
v -8.5 3 -1.5
v -8.5 5 -1.5
v -8.5 6 -1.5
v -7.5 4 -1.5
v -7.5 5 -1.5
v -7.5 6 -1.5
v -7.5 7 -1.5
v -6.5 5 -1.5
v -6.5 6 -1.5
v -6.5 7 -1.5
v -6.5 8 -1.5
v -5.5 4 -1.5
v -5.5 5 -1.5
v -4.5 3 -1.5
v -4.5 4 -1.5
v -3.5 4 -1.5
v -3.5 5 -1.5
v -3.5 7 -1.5
v -3.5 8 -1.5
v 14.5 3 -1.5
v 14.5 4 -1.5
v 15.5 4 -1.5
v 15.5 5 -1.5
v 16.5 5 -1.5
v 16.5 6 -1.5
v 16.5 7 -1.5
v 16.5 8 -1.5
v 16.5 9 -1.5
v 17.5 6 -1.5
v 17.5 7 -1.5
v 17.5 8 -1.5
v 17.5 9 -1.5
v -6.5 5 -2.5
v -6.5 7 -2.5
v -3.5 5 -2.5
v -3.5 7 -2.5
v 16.5 7 -2.5
v 16.5 8 -2.5
v 17.5 7 -2.5
v 17.5 8 -2.5
v -8.5 3 -0.5
v -4.5 3 -0.5
v 14.5 3 -0.5
v -8.5 3 -1.5
v -4.5 3 -1.5
v 14.5 3 -1.5
v -14.5 4 -0.5
v -10.5 4 -0.5
v 14.5 4 -0.5
v 15.5 4 -0.5
v -14.5 4 -1.5
v -10.5 4 -1.5
v 14.5 4 -1.5
v 15.5 4 -1.5
v -6.5 5 0.5
v -3.5 5 0.5
v -10.5 5 -0.5
v -8.5 5 -0.5
v -7.5 5 -0.5
v -6.5 5 -0.5
v -5.5 5 -0.5
v -3.5 5 -0.5
v 15.5 5 -0.5
v 16.5 5 -0.5
v -10.5 5 -1.5
v -8.5 5 -1.5
v -7.5 5 -1.5
v -6.5 5 -1.5
v -5.5 5 -1.5
v -3.5 5 -1.5
v 15.5 5 -1.5
v 16.5 5 -1.5
v -6.5 5 -2.5
v -3.5 5 -2.5
v 16.5 6 -0.5
v 17.5 6 -0.5
v 16.5 6 -1.5
v 17.5 6 -1.5
v 16.5 7 0.5
v 17.5 7 0.5
v 16.5 7 -0.5
v 17.5 7 -0.5
v 16.5 7 -1.5
v 17.5 7 -1.5
v 16.5 7 -2.5
v 17.5 7 -2.5
v -7.5 4 -0.5
v -5.5 4 -0.5
v -7.5 4 -1.5
v -5.5 4 -1.5
v -14.5 5 -0.5
v -13.5 5 -0.5
v -14.5 5 -1.5
v -13.5 5 -1.5
v -13.5 6 -0.5
v -12.5 6 -0.5
v -13.5 6 -1.5
v -12.5 6 -1.5
v -6.5 7 0.5
v -3.5 7 0.5
v -12.5 7 -0.5
v -7.5 7 -0.5
v -6.5 7 -0.5
v -3.5 7 -0.5
v -12.5 7 -1.5
v -7.5 7 -1.5
v -6.5 7 -1.5
v -3.5 7 -1.5
v -6.5 7 -2.5
v -3.5 7 -2.5
v 16.5 8 0.5
v 17.5 8 0.5
v -6.5 8 -0.5
v -3.5 8 -0.5
v 16.5 8 -0.5
v 17.5 8 -0.5
v -6.5 8 -1.5
v -3.5 8 -1.5
v 16.5 8 -1.5
v 17.5 8 -1.5
v 16.5 8 -2.5
v 17.5 8 -2.5
v 16.5 9 -0.5
v 17.5 9 -0.5
v 16.5 9 -1.5
v 17.5 9 -1.5

# faces
f 3/3/1 2/3/1 1/3/1
f 4/3/1 2/3/1 3/3/1
f 7/3/1 6/3/1 5/3/1
f 8/3/1 6/3/1 7/3/1
f 11/3/1 10/3/1 9/3/1
f 12/3/1 10/3/1 11/3/1
f 15/3/1 14/3/1 13/3/1
f 16/3/1 14/3/1 15/3/1
f 21/3/1 18/3/1 17/3/1
f 22/3/1 20/3/1 19/3/1
f 23/3/1 21/3/1 17/3/1
f 24/3/1 21/3/1 23/3/1
f 25/3/1 20/3/1 22/3/1
f 26/3/1 20/3/1 25/3/1
f 27/3/1 25/3/1 24/3/1
f 28/3/1 25/3/1 27/3/1
f 31/3/1 30/3/1 29/3/1
f 32/3/1 30/3/1 31/3/1
f 37/3/1 34/3/1 33/3/1
f 38/3/1 34/3/1 37/3/1
f 39/3/1 36/3/1 35/3/1
f 40/3/1 36/3/1 39/3/1
f 41/3/1 39/3/1 38/3/1
f 42/3/1 39/3/1 41/3/1
f 43/3/2 44/3/2 45/3/2
f 45/3/2 44/3/2 46/3/2
f 47/3/2 48/3/2 49/3/2
f 49/3/2 48/3/2 50/3/2
f 51/3/2 52/3/2 55/3/2
f 55/3/2 52/3/2 56/3/2
f 53/3/2 54/3/2 57/3/2
f 57/3/2 54/3/2 58/3/2
f 59/2/2 60/2/2 61/2/2
f 61/2/2 60/2/2 62/2/2
f 63/2/2 64/2/2 65/2/2
f 65/2/2 64/2/2 66/2/2
f 67/2/2 68/2/2 69/2/2
f 69/2/2 68/2/2 70/2/2
f 71/2/2 72/2/2 74/2/2
f 74/2/2 72/2/2 75/2/2
f 73/3/2 74/3/2 77/3/2
f 74/1/2 75/1/2 78/1/2
f 77/3/2 74/3/2 78/3/2
f 75/3/2 76/3/2 79/3/2
f 78/1/2 75/1/2 79/1/2
f 79/3/2 76/3/2 80/3/2
f 78/3/2 79/3/2 81/3/2
f 81/3/2 79/3/2 82/3/2
f 85/3/3 84/3/3 83/3/3
f 86/3/3 84/3/3 85/3/3
f 89/3/3 88/3/3 87/3/3
f 90/3/3 88/3/3 89/3/3
f 93/3/3 92/3/3 91/3/3
f 95/3/3 94/3/3 93/3/3
f 97/3/3 93/3/3 91/3/3
f 97/3/3 96/3/3 95/3/3
f 97/3/3 95/3/3 93/3/3
f 98/3/3 96/3/3 97/3/3
f 100/3/3 96/3/3 98/3/3
f 101/3/3 96/3/3 100/3/3
f 102/3/3 100/3/3 99/3/3
f 103/2/3 101/2/3 100/2/3
f 103/3/3 100/3/3 102/3/3
f 104/3/3 96/3/3 101/3/3
f 104/2/3 101/2/3 103/2/3
f 105/3/3 96/3/3 104/3/3
f 106/3/3 104/3/3 103/3/3
f 107/2/3 105/2/3 104/2/3
f 107/3/3 104/3/3 106/3/3
f 108/2/3 105/2/3 107/2/3
f 110/3/3 102/3/3 99/3/3
f 112/3/3 110/3/3 99/3/3
f 112/3/3 111/3/3 110/3/3
f 113/3/3 111/3/3 112/3/3
f 114/2/3 113/2/3 112/2/3
f 114/3/3 111/3/3 113/3/3
f 115/3/3 111/3/3 114/3/3
f 116/3/3 109/3/3 108/3/3
f 117/3/3 109/3/3 116/3/3
f 118/2/3 115/2/3 114/2/3
f 118/2/3 114/2/3 112/2/3
f 118/2/3 116/2/3 115/2/3
f 119/2/3 116/2/3 118/2/3
f 120/2/3 116/2/3 119/2/3
f 121/2/3 116/2/3 120/2/3
f 122/2/3 116/2/3 121/2/3
f 123/2/3 116/2/3 122/2/3
f 124/1/3 117/1/3 116/1/3
f 124/2/3 116/2/3 123/2/3
f 125/1/3 117/1/3 124/1/3
f 127/2/3 124/2/3 123/2/3
f 128/2/3 124/2/3 127/2/3
f 129/3/3 126/3/3 125/3/3
f 130/3/3 126/3/3 129/3/3
f 131/3/4 132/3/4 133/3/4
f 133/3/4 134/3/4 135/3/4
f 131/3/4 133/3/4 137/3/4
f 135/3/4 136/3/4 137/3/4
f 133/3/4 135/3/4 137/3/4
f 137/3/4 136/3/4 138/3/4
f 138/3/4 136/3/4 140/3/4
f 140/3/4 136/3/4 141/3/4
f 139/3/4 140/3/4 142/3/4
f 140/2/4 141/2/4 143/2/4
f 142/3/4 140/3/4 143/3/4
f 141/3/4 136/3/4 144/3/4
f 143/2/4 141/2/4 144/2/4
f 144/3/4 136/3/4 145/3/4
f 143/3/4 144/3/4 146/3/4
f 144/2/4 145/2/4 147/2/4
f 146/3/4 144/3/4 147/3/4
f 147/2/4 145/2/4 148/2/4
f 139/3/4 142/3/4 150/3/4
f 139/3/4 150/3/4 152/3/4
f 150/3/4 151/3/4 152/3/4
f 152/3/4 151/3/4 153/3/4
f 152/2/4 153/2/4 154/2/4
f 153/3/4 151/3/4 154/3/4
f 154/3/4 151/3/4 155/3/4
f 148/3/4 149/3/4 156/3/4
f 156/3/4 149/3/4 157/3/4
f 154/2/4 155/2/4 158/2/4
f 152/2/4 154/2/4 158/2/4
f 155/2/4 156/2/4 158/2/4
f 158/2/4 156/2/4 159/2/4
f 159/2/4 156/2/4 160/2/4
f 160/2/4 156/2/4 161/2/4
f 161/2/4 156/2/4 162/2/4
f 162/2/4 156/2/4 163/2/4
f 156/1/4 157/1/4 164/1/4
f 163/2/4 156/2/4 164/2/4
f 164/1/4 157/1/4 165/1/4
f 163/2/4 164/2/4 167/2/4
f 167/2/4 164/2/4 168/2/4
f 165/3/4 166/3/4 169/3/4
f 169/3/4 166/3/4 170/3/4
f 171/3/4 172/3/4 173/3/4
f 173/3/4 172/3/4 174/3/4
f 175/3/4 176/3/4 177/3/4
f 177/3/4 176/3/4 178/3/4
f 182/3/5 180/3/5 179/3/5
f 183/2/5 181/2/5 180/2/5
f 183/3/5 180/3/5 182/3/5
f 184/2/5 181/2/5 183/2/5
f 189/3/5 186/3/5 185/3/5
f 190/3/5 186/3/5 189/3/5
f 191/2/5 188/2/5 187/2/5
f 192/2/5 188/2/5 191/2/5
f 198/3/5 194/3/5 193/3/5
f 199/3/5 194/3/5 198/3/5
f 200/3/5 194/3/5 199/3/5
f 203/3/5 196/3/5 195/3/5
f 204/3/5 196/3/5 203/3/5
f 205/3/5 198/3/5 197/3/5
f 205/3/5 199/3/5 198/3/5
f 206/3/5 199/3/5 205/3/5
f 207/3/5 199/3/5 206/3/5
f 209/2/5 202/2/5 201/2/5
f 210/2/5 202/2/5 209/2/5
f 211/3/5 208/3/5 207/3/5
f 211/3/5 207/3/5 206/3/5
f 212/3/5 208/3/5 211/3/5
f 215/2/5 214/2/5 213/2/5
f 216/2/5 214/2/5 215/2/5
f 219/3/5 218/3/5 217/3/5
f 220/3/5 218/3/5 219/3/5
f 223/3/5 222/3/5 221/3/5
f 224/3/5 222/3/5 223/3/5
f 225/3/6 226/3/6 227/3/6
f 227/3/6 226/3/6 228/3/6
f 229/3/6 230/3/6 231/3/6
f 231/3/6 230/3/6 232/3/6
f 233/3/6 234/3/6 235/3/6
f 235/3/6 234/3/6 236/3/6
f 237/3/6 238/3/6 241/3/6
f 241/3/6 238/3/6 242/3/6
f 239/3/6 240/3/6 243/3/6
f 240/2/6 241/2/6 244/2/6
f 243/3/6 240/3/6 244/3/6
f 244/2/6 241/2/6 245/2/6
f 245/3/6 246/3/6 247/3/6
f 247/3/6 246/3/6 248/3/6
f 249/3/6 250/3/6 253/3/6
f 253/3/6 250/3/6 254/3/6
f 251/3/6 252/3/6 255/3/6
f 252/1/6 253/1/6 256/1/6
f 255/3/6 252/3/6 256/3/6
f 256/1/6 253/1/6 257/1/6
f 257/3/6 258/3/6 259/3/6
f 259/3/6 258/3/6 260/3/6
f 261/3/6 262/3/6 263/3/6
f 263/3/6 262/3/6 264/3/6
