# MagicaVoxel @ Ephtracy

# group
g railgun

# material
mtllib railgun.mtl
usemtl palette

# normals
vn -1 0 0
vn 1 0 0
vn 0 0 1
vn 0 0 -1
vn 0 -1 0
vn 0 1 0

# texcoords
vt 0.294922 0.5
vt 0.298828 0.5
vt 0.302734 0.5
vt 0.306641 0.5

# verts
v -30.5 18 4
v -30.5 18 -4
v -30.5 22 2
v -30.5 22 -2
v -30.5 25 2
v -30.5 25 1
v -30.5 25 -1
v -30.5 25 -2
v -30.5 26 4
v -30.5 26 3
v -30.5 26 1
v -30.5 26 -1
v -30.5 26 -3
v -30.5 26 -4
v -30.5 27 3
v -30.5 27 2
v -30.5 27 -2
v -30.5 27 -3
v -30.5 28 2
v -30.5 28 -2
v -3.5 18 2
v -3.5 18 -2
v -3.5 20 2
v -3.5 20 -2
v -2.5 17 2
v -2.5 17 -2
v -2.5 18 3
v -2.5 18 2
v -2.5 18 -2
v -2.5 18 -3
v -2.5 20 3
v -2.5 20 2
v -2.5 20 -2
v -2.5 20 -3
v -0.5 16 2
v -0.5 16 -2
v -0.5 17 3
v -0.5 17 2
v -0.5 17 -2
v -0.5 17 -3
v -0.5 18 3
v -0.5 18 2
v -0.5 18 -2
v -0.5 18 -3
v 0.5 16 3
v 0.5 16 2
v 0.5 16 -2
v 0.5 16 -3
v 0.5 17 8
v 0.5 17 3
v 0.5 17 2
v 0.5 17 -2
v 0.5 17 -3
v 0.5 17 -8
v 0.5 18 8
v 0.5 18 3
v 0.5 18 -3
v 0.5 18 -8
v 1.5 16 8
v 1.5 16 3
v 1.5 16 -3
v 1.5 16 -8
v 1.5 17 10
v 1.5 17 8
v 1.5 17 3
v 1.5 17 -3
v 1.5 17 -8
v 1.5 17 -10
v 1.5 18 10
v 1.5 18 8
v 1.5 18 3
v 1.5 18 -3
v 1.5 18 -8
v 1.5 18 -10
v 1.5 19 8
v 1.5 19 3
v 1.5 19 -3
v 1.5 19 -8
v 1.5 22 2
v 1.5 22 1
v 1.5 22 -1
v 1.5 22 -2
v 1.5 23 2
v 1.5 23 1
v 1.5 23 -1
v 1.5 23 -2
v 1.5 25 1
v 1.5 25 -1
v 1.5 26 1
v 1.5 26 -1
v 15.5 22 1
v 15.5 22 -1
v 15.5 23 2
v 15.5 23 1
v 15.5 23 -1
v 15.5 23 -2
v 15.5 25 2
v 15.5 25 -2
v -29.5 18 4
v -29.5 18 3
v -29.5 18 -3
v -29.5 18 -4
v -29.5 19 4
v -29.5 19 3
v -29.5 19 -3
v -29.5 19 -4
v -28.5 18 3
v -28.5 18 -3
v -28.5 19 3
v -28.5 19 2
v -28.5 19 1
v -28.5 19 -1
v -28.5 19 -2
v -28.5 19 -3
v -28.5 20 2
v -28.5 20 1
v -28.5 20 -1
v -28.5 20 -2
v -27.5 19 4
v -27.5 19 2
v -27.5 19 1
v -27.5 19 -1
v -27.5 19 -2
v -27.5 19 -4
v -27.5 20 3
v -27.5 20 2
v -27.5 20 1
v -27.5 20 -1
v -27.5 20 -2
v -27.5 20 -3
v -27.5 21 3
v -27.5 21 -3
v -27.5 25 3
v -27.5 25 -3
v -27.5 26 4
v -27.5 26 3
v -27.5 26 2
v -27.5 26 -2
v -27.5 26 -3
v -27.5 26 -4
v -27.5 27 3
v -27.5 27 2
v -27.5 27 1
v -27.5 27 -1
v -27.5 27 -2
v -27.5 27 -3
v -27.5 28 2
v -27.5 28 -2
v 2.5 16 8
v 2.5 16 3
v 2.5 16 2
v 2.5 16 -2
v 2.5 16 -3
v 2.5 16 -8
v 2.5 17 10
v 2.5 17 8
v 2.5 17 3
v 2.5 17 2
v 2.5 17 -2
v 2.5 17 -3
v 2.5 17 -8
v 2.5 17 -10
v 2.5 18 10
v 2.5 18 8
v 2.5 18 3
v 2.5 18 -3
v 2.5 18 -8
v 2.5 18 -10
v 2.5 19 8
v 2.5 19 3
v 2.5 19 -3
v 2.5 19 -8
v 3.5 17 8
v 3.5 17 3
v 3.5 17 -3
v 3.5 17 -8
v 3.5 18 8
v 3.5 18 3
v 3.5 18 -3
v 3.5 18 -8
v 18.5 16 2
v 18.5 16 -2
v 18.5 17 3
v 18.5 17 2
v 18.5 17 -2
v 18.5 17 -3
v 18.5 26 3
v 18.5 26 2
v 18.5 26 -2
v 18.5 26 -3
v 18.5 27 2
v 18.5 27 -2
v 19.5 17 2
v 19.5 17 -2
v 19.5 18 1
v 19.5 18 -1
v 19.5 25 1
v 19.5 25 -1
v 19.5 26 2
v 19.5 26 -2
v 20.5 18 1
v 20.5 18 -1
v 20.5 25 1
v 20.5 25 -1
v 1.5 17 10
v 1.5 18 10
v 2.5 17 10
v 2.5 18 10
v 0.5 17 8
v 0.5 18 8
v 1.5 16 8
v 1.5 17 8
v 1.5 18 8
v 1.5 19 8
v 2.5 16 8
v 2.5 17 8
v 2.5 18 8
v 2.5 19 8
v 3.5 17 8
v 3.5 18 8
v -30.5 18 4
v -30.5 26 4
v -29.5 18 4
v -29.5 19 4
v -27.5 19 4
v -27.5 26 4
v -30.5 26 3
v -30.5 27 3
v -29.5 18 3
v -29.5 19 3
v -28.5 18 3
v -28.5 19 3
v -27.5 20 3
v -27.5 21 3
v -27.5 25 3
v -27.5 26 3
v -27.5 27 3
v -2.5 18 3
v -2.5 20 3
v -1.5 20 3
v -1.5 21 3
v -1.5 22 3
v -0.5 17 3
v -0.5 18 3
v 0.5 16 3
v 0.5 17 3
v 0.5 18 3
v 1.5 16 3
v 1.5 17 3
v 1.5 18 3
v 1.5 19 3
v 1.5 21 3
v 1.5 22 3
v 2.5 18 3
v 2.5 19 3
v 2.5 22 3
v 2.5 23 3
v 3.5 17 3
v 3.5 18 3
v 9.5 23 3
v 9.5 25 3
v 17.5 23 3
v 17.5 26 3
v 18.5 17 3
v 18.5 26 3
v -30.5 27 2
v -30.5 28 2
v -27.5 26 2
v -27.5 27 2
v -27.5 28 2
v -3.5 18 2
v -3.5 20 2
v -2.5 17 2
v -2.5 18 2
v -2.5 20 2
v -0.5 16 2
v -0.5 17 2
v -0.5 18 2
v 0.5 16 2
v 0.5 17 2
v 2.5 16 2
v 2.5 17 2
v 17.5 26 2
v 17.5 27 2
v 18.5 16 2
v 18.5 17 2
v 18.5 26 2
v 18.5 27 2
v 19.5 17 2
v 19.5 26 2
v -28.5 19 1
v -28.5 20 1
v -27.5 19 1
v -27.5 20 1
v 19.5 18 1
v 19.5 25 1
v 20.5 18 1
v 20.5 25 1
v -30.5 25 -1
v -30.5 26 -1
v -28.5 26 -1
v -27.5 25 -1
v -27.5 26 -1
v 0.5 25 -1
v 0.5 26 -1
v 1.5 22 -1
v 1.5 23 -1
v 1.5 25 -1
v 1.5 26 -1
v 2.5 22 -1
v 2.5 23 -1
v 15.5 22 -1
v 15.5 23 -1
v -30.5 22 -2
v -30.5 25 -2
v -28.5 19 -2
v -28.5 20 -2
v -27.5 19 -2
v -27.5 20 -2
v -27.5 22 -2
v -27.5 25 -2
v 0.5 22 -2
v 0.5 25 -2
v 1.5 22 -2
v 1.5 23 -2
v 2.5 23 -2
v 2.5 25 -2
v 3.5 25 -2
v 9.5 23 -2
v 9.5 25 -2
v 15.5 23 -2
v 15.5 25 -2
v -30.5 22 2
v -30.5 25 2
v -28.5 19 2
v -28.5 20 2
v -27.5 19 2
v -27.5 20 2
v -27.5 22 2
v -27.5 25 2
v 0.5 22 2
v 0.5 25 2
v 1.5 22 2
v 1.5 23 2
v 2.5 23 2
v 2.5 25 2
v 3.5 25 2
v 9.5 23 2
v 9.5 25 2
v 15.5 23 2
v 15.5 25 2
v -30.5 25 1
v -30.5 26 1
v -28.5 26 1
v -27.5 25 1
v -27.5 26 1
v 0.5 25 1
v 0.5 26 1
v 1.5 22 1
v 1.5 23 1
v 1.5 25 1
v 1.5 26 1
v 2.5 22 1
v 2.5 23 1
v 15.5 22 1
v 15.5 23 1
v -28.5 19 -1
v -28.5 20 -1
v -27.5 19 -1
v -27.5 20 -1
v 19.5 18 -1
v 19.5 25 -1
v 20.5 18 -1
v 20.5 25 -1
v -30.5 27 -2
v -30.5 28 -2
v -27.5 26 -2
v -27.5 27 -2
v -27.5 28 -2
v -3.5 18 -2
v -3.5 20 -2
v -2.5 17 -2
v -2.5 18 -2
v -2.5 20 -2
v -0.5 16 -2
v -0.5 17 -2
v -0.5 18 -2
v 0.5 16 -2
v 0.5 17 -2
v 2.5 16 -2
v 2.5 17 -2
v 17.5 26 -2
v 17.5 27 -2
v 18.5 16 -2
v 18.5 17 -2
v 18.5 26 -2
v 18.5 27 -2
v 19.5 17 -2
v 19.5 26 -2
v -30.5 26 -3
v -30.5 27 -3
v -29.5 18 -3
v -29.5 19 -3
v -28.5 18 -3
v -28.5 19 -3
v -27.5 20 -3
v -27.5 21 -3
v -27.5 25 -3
v -27.5 26 -3
v -27.5 27 -3
v -2.5 18 -3
v -2.5 20 -3
v -1.5 20 -3
v -1.5 21 -3
v -1.5 22 -3
v -0.5 17 -3
v -0.5 18 -3
v 0.5 16 -3
v 0.5 17 -3
v 0.5 18 -3
v 1.5 16 -3
v 1.5 17 -3
v 1.5 18 -3
v 1.5 19 -3
v 1.5 21 -3
v 1.5 22 -3
v 2.5 18 -3
v 2.5 19 -3
v 2.5 22 -3
v 2.5 23 -3
v 3.5 17 -3
v 3.5 18 -3
v 9.5 23 -3
v 9.5 25 -3
v 17.5 23 -3
v 17.5 26 -3
v 18.5 17 -3
v 18.5 26 -3
v -30.5 18 -4
v -30.5 26 -4
v -29.5 18 -4
v -29.5 19 -4
v -27.5 19 -4
v -27.5 26 -4
v 0.5 17 -8
v 0.5 18 -8
v 1.5 16 -8
v 1.5 17 -8
v 1.5 18 -8
v 1.5 19 -8
v 2.5 16 -8
v 2.5 17 -8
v 2.5 18 -8
v 2.5 19 -8
v 3.5 17 -8
v 3.5 18 -8
v 1.5 17 -10
v 1.5 18 -10
v 2.5 17 -10
v 2.5 18 -10
v 1.5 16 8
v 2.5 16 8
v 0.5 16 3
v 1.5 16 3
v 2.5 16 3
v -0.5 16 2
v 0.5 16 2
v 2.5 16 2
v 18.5 16 2
v -0.5 16 -2
v 0.5 16 -2
v 2.5 16 -2
v 18.5 16 -2
v 0.5 16 -3
v 1.5 16 -3
v 2.5 16 -3
v 1.5 16 -8
v 2.5 16 -8
v 1.5 17 10
v 2.5 17 10
v 0.5 17 8
v 1.5 17 8
v 2.5 17 8
v 3.5 17 8
v -0.5 17 3
v 0.5 17 3
v 1.5 17 3
v 2.5 17 3
v 3.5 17 3
v 18.5 17 3
v -2.5 17 2
v -0.5 17 2
v 0.5 17 2
v 2.5 17 2
v 18.5 17 2
v 19.5 17 2
v -2.5 17 -2
v -0.5 17 -2
v 0.5 17 -2
v 2.5 17 -2
v 18.5 17 -2
v 19.5 17 -2
v -0.5 17 -3
v 0.5 17 -3
v 1.5 17 -3
v 2.5 17 -3
v 3.5 17 -3
v 18.5 17 -3
v 0.5 17 -8
v 1.5 17 -8
v 2.5 17 -8
v 3.5 17 -8
v 1.5 17 -10
v 2.5 17 -10
v -30.5 18 4
v -29.5 18 4
v -29.5 18 3
v -28.5 18 3
v -2.5 18 3
v -0.5 18 3
v -3.5 18 2
v -2.5 18 2
v -0.5 18 2
v 19.5 18 1
v 20.5 18 1
v 19.5 18 -1
v 20.5 18 -1
v -3.5 18 -2
v -2.5 18 -2
v -0.5 18 -2
v -29.5 18 -3
v -28.5 18 -3
v -2.5 18 -3
v -0.5 18 -3
v -30.5 18 -4
v -29.5 18 -4
v -29.5 19 4
v -27.5 19 4
v -29.5 19 3
v -28.5 19 3
v -28.5 19 2
v -27.5 19 2
v -28.5 19 1
v -27.5 19 1
v -28.5 19 -1
v -27.5 19 -1
v -28.5 19 -2
v -27.5 19 -2
v -29.5 19 -3
v -28.5 19 -3
v -29.5 19 -4
v -27.5 19 -4
v -27.5 20 3
v -2.5 20 3
v -28.5 20 2
v -27.5 20 2
v -3.5 20 2
v -2.5 20 2
v -28.5 20 1
v -27.5 20 1
v -28.5 20 -1
v -27.5 20 -1
v -28.5 20 -2
v -27.5 20 -2
v -3.5 20 -2
v -2.5 20 -2
v -27.5 20 -3
v -2.5 20 -3
v -30.5 25 2
v -27.5 25 2
v 0.5 25 2
v 2.5 25 2
v 3.5 25 2
v 9.5 25 2
v 15.5 25 2
v -30.5 25 1
v -27.5 25 1
v 0.5 25 1
v 1.5 25 1
v 2.5 25 1
v 3.5 25 1
v -30.5 25 -1
v -27.5 25 -1
v 0.5 25 -1
v 1.5 25 -1
v 2.5 25 -1
v 3.5 25 -1
v -30.5 25 -2
v -27.5 25 -2
v 0.5 25 -2
v 2.5 25 -2
v 3.5 25 -2
v 9.5 25 -2
v 15.5 25 -2
v -30.5 26 1
v -28.5 26 1
v -27.5 26 1
v 0.5 26 1
v 1.5 26 1
v -30.5 26 -1
v -28.5 26 -1
v -27.5 26 -1
v 0.5 26 -1
v 1.5 26 -1
v 1.5 18 10
v 2.5 18 10
v 0.5 18 8
v 1.5 18 8
v 2.5 18 8
v 3.5 18 8
v 0.5 18 3
v 1.5 18 3
v 2.5 18 3
v 3.5 18 3
v 0.5 18 -3
v 1.5 18 -3
v 2.5 18 -3
v 3.5 18 -3
v 0.5 18 -8
v 1.5 18 -8
v 2.5 18 -8
v 3.5 18 -8
v 1.5 18 -10
v 2.5 18 -10
v 1.5 19 8
v 2.5 19 8
v 1.5 19 3
v 2.5 19 3
v 1.5 19 -3
v 2.5 19 -3
v 1.5 19 -8
v 2.5 19 -8
v -30.5 22 2
v -27.5 22 2
v 0.5 22 2
v 1.5 22 2
v 1.5 22 1
v 2.5 22 1
v 15.5 22 1
v 1.5 22 -1
v 2.5 22 -1
v 15.5 22 -1
v -30.5 22 -2
v -27.5 22 -2
v 0.5 22 -2
v 1.5 22 -2
v 1.5 23 2
v 2.5 23 2
v 9.5 23 2
v 15.5 23 2
v 1.5 23 1
v 2.5 23 1
v 15.5 23 1
v 1.5 23 -1
v 2.5 23 -1
v 15.5 23 -1
v 1.5 23 -2
v 2.5 23 -2
v 9.5 23 -2
v 15.5 23 -2
v 19.5 25 1
v 20.5 25 1
v 19.5 25 -1
v 20.5 25 -1
v -30.5 26 4
v -27.5 26 4
v -30.5 26 3
v -27.5 26 3
v 17.5 26 3
v 18.5 26 3
v -27.5 26 2
v 17.5 26 2
v 18.5 26 2
v 19.5 26 2
v -27.5 26 -2
v 17.5 26 -2
v 18.5 26 -2
v 19.5 26 -2
v -30.5 26 -3
v -27.5 26 -3
v 17.5 26 -3
v 18.5 26 -3
v -30.5 26 -4
v -27.5 26 -4
v -30.5 27 3
v -27.5 27 3
v -30.5 27 2
v -27.5 27 2
v 17.5 27 2
v 18.5 27 2
v -27.5 27 1
v 0.5 27 1
v -27.5 27 -1
v 0.5 27 -1
v -30.5 27 -2
v -27.5 27 -2
v 17.5 27 -2
v 18.5 27 -2
v -30.5 27 -3
v -27.5 27 -3
v -30.5 28 2
v -27.5 28 2
v -30.5 28 -2
v -27.5 28 -2

# faces
f 3/1/1 2/1/1 1/1/1
f 4/1/1 2/1/1 3/1/1
f 5/1/1 3/1/1 1/1/1
f 8/1/1 2/1/1 4/1/1
f 9/1/1 6/1/1 5/1/1
f 9/1/1 5/1/1 1/1/1
f 10/1/1 6/1/1 9/1/1
f 11/1/1 6/1/1 10/1/1
f 12/1/1 8/1/1 7/1/1
f 13/1/1 2/1/1 8/1/1
f 13/1/1 8/1/1 12/1/1
f 14/1/1 2/1/1 13/1/1
f 15/1/1 11/1/1 10/1/1
f 15/1/1 12/1/1 11/1/1
f 15/1/1 13/1/1 12/1/1
f 16/1/1 13/1/1 15/1/1
f 17/1/1 13/1/1 16/1/1
f 18/1/1 13/1/1 17/1/1
f 19/1/1 17/1/1 16/1/1
f 20/1/1 17/1/1 19/1/1
f 23/2/1 22/2/1 21/2/1
f 24/2/1 22/2/1 23/2/1
f 28/2/1 26/2/1 25/2/1
f 29/2/1 26/2/1 28/2/1
f 31/2/1 28/2/1 27/2/1
f 32/2/1 28/2/1 31/2/1
f 33/2/1 30/2/1 29/2/1
f 34/2/1 30/2/1 33/2/1
f 38/2/1 36/2/1 35/2/1
f 39/2/1 36/2/1 38/2/1
f 41/2/1 38/2/1 37/2/1
f 42/2/1 38/2/1 41/2/1
f 43/2/1 40/2/1 39/2/1
f 44/2/1 40/2/1 43/2/1
f 50/2/1 46/2/1 45/2/1
f 51/2/1 46/2/1 50/2/1
f 52/2/1 48/2/1 47/2/1
f 53/2/1 48/2/1 52/2/1
f 55/4/1 50/4/1 49/4/1
f 56/4/1 50/4/1 55/4/1
f 57/4/1 54/4/1 53/4/1
f 58/4/1 54/4/1 57/4/1
f 64/4/1 60/4/1 59/4/1
f 65/4/1 60/4/1 64/4/1
f 66/4/1 62/4/1 61/4/1
f 67/4/1 62/4/1 66/4/1
f 69/4/1 64/4/1 63/4/1
f 70/4/1 64/4/1 69/4/1
f 73/4/1 68/4/1 67/4/1
f 74/4/1 68/4/1 73/4/1
f 75/4/1 71/4/1 70/4/1
f 76/4/1 71/4/1 75/4/1
f 77/4/1 73/4/1 72/4/1
f 78/4/1 73/4/1 77/4/1
f 83/3/1 80/3/1 79/3/1
f 84/3/1 80/3/1 83/3/1
f 85/3/1 82/3/1 81/3/1
f 86/3/1 82/3/1 85/3/1
f 89/3/1 88/3/1 87/3/1
f 90/3/1 88/3/1 89/3/1
f 94/3/1 92/3/1 91/3/1
f 95/3/1 92/3/1 94/3/1
f 97/3/1 94/3/1 93/3/1
f 97/3/1 96/3/1 95/3/1
f 97/3/1 95/3/1 94/3/1
f 98/3/1 96/3/1 97/3/1
f 99/1/2 100/1/2 103/1/2
f 103/1/2 100/1/2 104/1/2
f 101/1/2 102/1/2 105/1/2
f 105/1/2 102/1/2 106/1/2
f 107/1/2 108/1/2 109/1/2
f 109/1/2 108/1/2 110/1/2
f 110/1/2 108/1/2 111/1/2
f 111/1/2 108/1/2 112/1/2
f 112/1/2 108/1/2 113/1/2
f 113/1/2 108/1/2 114/1/2
f 110/1/2 111/1/2 115/1/2
f 115/1/2 111/1/2 116/1/2
f 112/1/2 113/1/2 117/1/2
f 117/1/2 113/1/2 118/1/2
f 119/1/2 120/1/2 125/1/2
f 125/1/2 120/1/2 126/1/2
f 121/1/2 122/1/2 127/1/2
f 127/1/2 122/1/2 128/1/2
f 123/1/2 124/1/2 129/1/2
f 129/1/2 124/1/2 130/1/2
f 119/1/2 125/1/2 131/1/2
f 130/1/2 124/1/2 132/1/2
f 119/1/2 131/1/2 133/1/2
f 132/1/2 124/1/2 134/1/2
f 119/1/2 133/1/2 135/1/2
f 135/1/2 133/1/2 136/1/2
f 134/1/2 124/1/2 139/1/2
f 139/1/2 124/1/2 140/1/2
f 136/1/2 137/1/2 141/1/2
f 141/1/2 137/1/2 142/1/2
f 138/1/2 139/1/2 145/1/2
f 145/1/2 139/1/2 146/1/2
f 143/1/2 144/1/2 147/1/2
f 144/1/2 145/1/2 147/1/2
f 142/1/2 143/1/2 147/1/2
f 147/1/2 145/1/2 148/1/2
f 149/4/2 150/4/2 156/4/2
f 150/2/2 151/2/2 157/2/2
f 156/4/2 150/4/2 157/4/2
f 157/2/2 151/2/2 158/2/2
f 152/2/2 153/2/2 159/2/2
f 153/4/2 154/4/2 160/4/2
f 159/2/2 153/2/2 160/2/2
f 160/4/2 154/4/2 161/4/2
f 155/4/2 156/4/2 163/4/2
f 163/4/2 156/4/2 164/4/2
f 161/4/2 162/4/2 167/4/2
f 167/4/2 162/4/2 168/4/2
f 164/4/2 165/4/2 169/4/2
f 169/4/2 165/4/2 170/4/2
f 166/4/2 167/4/2 171/4/2
f 171/4/2 167/4/2 172/4/2
f 173/4/2 174/4/2 177/4/2
f 177/4/2 174/4/2 178/4/2
f 175/4/2 176/4/2 179/4/2
f 179/4/2 176/4/2 180/4/2
f 181/2/2 182/2/2 184/2/2
f 184/2/2 182/2/2 185/2/2
f 183/2/2 184/2/2 187/2/2
f 187/2/2 184/2/2 188/2/2
f 185/2/2 186/2/2 189/2/2
f 189/2/2 186/2/2 190/2/2
f 188/2/2 189/2/2 191/2/2
f 191/2/2 189/2/2 192/2/2
f 193/1/2 194/1/2 195/1/2
f 195/1/2 194/1/2 196/1/2
f 193/1/2 195/1/2 197/1/2
f 196/1/2 194/1/2 198/1/2
f 193/1/2 197/1/2 199/1/2
f 197/1/2 198/1/2 199/1/2
f 198/1/2 194/1/2 200/1/2
f 199/1/2 198/1/2 200/1/2
f 201/1/2 202/1/2 203/1/2
f 203/1/2 202/1/2 204/1/2
f 207/4/3 206/4/3 205/4/3
f 208/4/3 206/4/3 207/4/3
f 212/4/3 210/4/3 209/4/3
f 213/4/3 210/4/3 212/4/3
f 215/4/3 212/4/3 211/4/3
f 216/4/3 212/4/3 215/4/3
f 217/4/3 214/4/3 213/4/3
f 218/4/3 214/4/3 217/4/3
f 219/4/3 217/4/3 216/4/3
f 220/4/3 217/4/3 219/4/3
f 223/1/3 222/1/3 221/1/3
f 224/1/3 222/1/3 223/1/3
f 225/1/3 222/1/3 224/1/3
f 226/1/3 222/1/3 225/1/3
f 231/1/3 230/1/3 229/1/3
f 232/1/3 230/1/3 231/1/3
f 236/1/3 228/1/3 227/1/3
f 237/1/3 228/1/3 236/1/3
f 239/1/3 234/1/3 233/1/3
f 240/1/3 234/1/3 239/1/3
f 240/2/3 239/2/3 238/2/3
f 241/3/3 235/3/3 234/3/3
f 241/1/3 234/1/3 240/1/3
f 242/3/3 235/3/3 241/3/3
f 244/2/3 240/2/3 238/2/3
f 244/2/3 241/2/3 240/2/3
f 246/2/3 244/2/3 243/2/3
f 247/2/3 241/2/3 244/2/3
f 247/2/3 244/2/3 246/2/3
f 248/2/3 246/2/3 245/2/3
f 249/2/3 246/2/3 248/2/3
f 250/2/3 241/2/3 247/2/3
f 251/2/3 241/2/3 250/2/3
f 252/1/3 242/1/3 241/1/3
f 252/2/3 241/2/3 251/2/3
f 253/3/3 235/3/3 242/3/3
f 253/1/3 242/1/3 252/1/3
f 255/2/3 252/2/3 251/2/3
f 255/2/3 253/2/3 252/2/3
f 256/3/3 235/3/3 253/3/3
f 256/2/3 253/2/3 255/2/3
f 257/3/3 235/3/3 256/3/3
f 259/2/3 255/2/3 254/2/3
f 259/2/3 256/2/3 255/2/3
f 259/2/3 257/2/3 256/2/3
f 260/3/3 235/3/3 257/3/3
f 260/2/3 259/2/3 258/2/3
f 260/2/3 257/2/3 259/2/3
f 261/1/3 236/1/3 235/1/3
f 261/3/3 235/3/3 260/3/3
f 262/2/3 260/2/3 258/2/3
f 262/1/3 261/1/3 260/1/3
f 263/1/3 236/1/3 261/1/3
f 263/1/3 261/1/3 262/1/3
f 264/2/3 262/2/3 258/2/3
f 264/2/3 263/2/3 262/2/3
f 265/2/3 263/2/3 264/2/3
f 269/1/3 267/1/3 266/1/3
f 270/1/3 267/1/3 269/1/3
f 274/2/3 272/2/3 271/2/3
f 275/2/3 272/2/3 274/2/3
f 277/2/3 274/2/3 273/2/3
f 278/2/3 274/2/3 277/2/3
f 279/2/3 277/2/3 276/2/3
f 280/2/3 277/2/3 279/2/3
f 283/1/3 269/1/3 268/1/3
f 284/1/3 269/1/3 283/1/3
f 285/2/3 282/2/3 281/2/3
f 286/2/3 282/2/3 285/2/3
f 287/2/3 284/2/3 283/2/3
f 288/2/3 284/2/3 287/2/3
f 289/1/3 287/1/3 286/1/3
f 290/1/3 287/1/3 289/1/3
f 293/1/3 292/1/3 291/1/3
f 294/1/3 292/1/3 293/1/3
f 297/1/3 296/1/3 295/1/3
f 298/1/3 296/1/3 297/1/3
f 301/1/3 300/1/3 299/1/3
f 302/1/3 301/1/3 299/1/3
f 303/1/3 301/1/3 302/1/3
f 304/3/3 303/3/3 302/3/3
f 305/3/3 303/3/3 304/3/3
f 308/1/3 305/1/3 304/1/3
f 309/1/3 305/1/3 308/1/3
f 310/3/3 307/3/3 306/3/3
f 311/3/3 307/3/3 310/3/3
f 312/1/3 311/1/3 310/1/3
f 313/1/3 311/1/3 312/1/3
f 318/1/3 317/1/3 316/1/3
f 319/1/3 317/1/3 318/1/3
f 320/1/3 315/1/3 314/1/3
f 321/1/3 315/1/3 320/1/3
f 322/3/3 321/3/3 320/3/3
f 323/3/3 321/3/3 322/3/3
f 324/3/3 323/3/3 322/3/3
f 325/3/3 323/3/3 324/3/3
f 326/3/3 323/3/3 325/3/3
f 327/3/3 323/3/3 326/3/3
f 328/3/3 327/3/3 326/3/3
f 329/3/3 328/3/3 326/3/3
f 330/3/3 328/3/3 329/3/3
f 331/1/3 330/1/3 329/1/3
f 332/1/3 330/1/3 331/1/3
f 335/1/4 336/1/4 337/1/4
f 337/1/4 336/1/4 338/1/4
f 333/1/4 334/1/4 339/1/4
f 339/1/4 334/1/4 340/1/4
f 339/3/4 340/3/4 341/3/4
f 341/3/4 340/3/4 342/3/4
f 341/3/4 342/3/4 343/3/4
f 343/3/4 342/3/4 344/3/4
f 344/3/4 342/3/4 345/3/4
f 345/3/4 342/3/4 346/3/4
f 345/3/4 346/3/4 347/3/4
f 345/3/4 347/3/4 348/3/4
f 348/3/4 347/3/4 349/3/4
f 348/1/4 349/1/4 350/1/4
f 350/1/4 349/1/4 351/1/4
f 352/1/4 353/1/4 354/1/4
f 352/1/4 354/1/4 355/1/4
f 355/1/4 354/1/4 356/1/4
f 355/3/4 356/3/4 357/3/4
f 357/3/4 356/3/4 358/3/4
f 357/1/4 358/1/4 361/1/4
f 361/1/4 358/1/4 362/1/4
f 359/3/4 360/3/4 363/3/4
f 363/3/4 360/3/4 364/3/4
f 363/1/4 364/1/4 365/1/4
f 365/1/4 364/1/4 366/1/4
f 367/1/4 368/1/4 369/1/4
f 369/1/4 368/1/4 370/1/4
f 371/1/4 372/1/4 373/1/4
f 373/1/4 372/1/4 374/1/4
f 375/1/4 376/1/4 378/1/4
f 378/1/4 376/1/4 379/1/4
f 380/2/4 381/2/4 383/2/4
f 383/2/4 381/2/4 384/2/4
f 382/2/4 383/2/4 386/2/4
f 386/2/4 383/2/4 387/2/4
f 385/2/4 386/2/4 388/2/4
f 388/2/4 386/2/4 389/2/4
f 377/1/4 378/1/4 392/1/4
f 392/1/4 378/1/4 393/1/4
f 390/2/4 391/2/4 394/2/4
f 394/2/4 391/2/4 395/2/4
f 392/2/4 393/2/4 396/2/4
f 396/2/4 393/2/4 397/2/4
f 395/1/4 396/1/4 398/1/4
f 398/1/4 396/1/4 399/1/4
f 402/1/4 403/1/4 404/1/4
f 404/1/4 403/1/4 405/1/4
f 400/1/4 401/1/4 409/1/4
f 409/1/4 401/1/4 410/1/4
f 406/1/4 407/1/4 412/1/4
f 412/1/4 407/1/4 413/1/4
f 411/2/4 412/2/4 413/2/4
f 407/3/4 408/3/4 414/3/4
f 413/1/4 407/1/4 414/1/4
f 414/3/4 408/3/4 415/3/4
f 411/2/4 413/2/4 417/2/4
f 413/2/4 414/2/4 417/2/4
f 416/2/4 417/2/4 419/2/4
f 417/2/4 414/2/4 420/2/4
f 419/2/4 417/2/4 420/2/4
f 418/2/4 419/2/4 421/2/4
f 421/2/4 419/2/4 422/2/4
f 420/2/4 414/2/4 423/2/4
f 423/2/4 414/2/4 424/2/4
f 414/1/4 415/1/4 425/1/4
f 424/2/4 414/2/4 425/2/4
f 415/3/4 408/3/4 426/3/4
f 425/1/4 415/1/4 426/1/4
f 424/2/4 425/2/4 428/2/4
f 425/2/4 426/2/4 428/2/4
f 426/3/4 408/3/4 429/3/4
f 428/2/4 426/2/4 429/2/4
f 429/3/4 408/3/4 430/3/4
f 427/2/4 428/2/4 432/2/4
f 428/2/4 429/2/4 432/2/4
f 429/2/4 430/2/4 432/2/4
f 430/3/4 408/3/4 433/3/4
f 431/2/4 432/2/4 433/2/4
f 432/2/4 430/2/4 433/2/4
f 408/1/4 409/1/4 434/1/4
f 433/3/4 408/3/4 434/3/4
f 431/2/4 433/2/4 435/2/4
f 433/1/4 434/1/4 435/1/4
f 434/1/4 409/1/4 436/1/4
f 435/1/4 434/1/4 436/1/4
f 431/2/4 435/2/4 437/2/4
f 435/2/4 436/2/4 437/2/4
f 437/2/4 436/2/4 438/2/4
f 439/1/4 440/1/4 441/1/4
f 441/1/4 440/1/4 442/1/4
f 442/1/4 440/1/4 443/1/4
f 443/1/4 440/1/4 444/1/4
f 445/4/4 446/4/4 448/4/4
f 448/4/4 446/4/4 449/4/4
f 447/4/4 448/4/4 451/4/4
f 451/4/4 448/4/4 452/4/4
f 449/4/4 450/4/4 453/4/4
f 453/4/4 450/4/4 454/4/4
f 452/4/4 453/4/4 455/4/4
f 455/4/4 453/4/4 456/4/4
f 457/4/4 458/4/4 459/4/4
f 459/4/4 458/4/4 460/4/4
f 464/4/5 462/4/5 461/4/5
f 465/4/5 462/4/5 464/4/5
f 467/2/5 464/2/5 463/2/5
f 467/2/5 465/2/5 464/2/5
f 468/2/5 465/2/5 467/2/5
f 470/2/5 468/2/5 467/2/5
f 470/2/5 469/2/5 468/2/5
f 470/2/5 467/2/5 466/2/5
f 471/2/5 469/2/5 470/2/5
f 472/2/5 469/2/5 471/2/5
f 473/2/5 469/2/5 472/2/5
f 474/2/5 472/2/5 471/2/5
f 475/2/5 472/2/5 474/2/5
f 476/2/5 472/2/5 475/2/5
f 477/4/5 476/4/5 475/4/5
f 478/4/5 476/4/5 477/4/5
f 482/4/5 480/4/5 479/4/5
f 483/4/5 480/4/5 482/4/5
f 486/4/5 482/4/5 481/4/5
f 487/4/5 482/4/5 486/4/5
f 488/4/5 484/4/5 483/4/5
f 489/4/5 484/4/5 488/4/5
f 492/2/5 486/2/5 485/2/5
f 493/2/5 486/2/5 492/2/5
f 494/2/5 490/2/5 489/2/5
f 494/2/5 489/2/5 488/2/5
f 495/2/5 490/2/5 494/2/5
f 497/2/5 492/2/5 491/2/5
f 498/2/5 492/2/5 497/2/5
f 501/1/5 496/1/5 495/1/5
f 502/1/5 496/1/5 501/1/5
f 503/2/5 499/2/5 498/2/5
f 504/2/5 499/2/5 503/2/5
f 506/2/5 501/2/5 500/2/5
f 507/2/5 501/2/5 506/2/5
f 508/2/5 501/2/5 507/2/5
f 509/4/5 505/4/5 504/4/5
f 510/4/5 505/4/5 509/4/5
f 511/4/5 507/4/5 506/4/5
f 512/4/5 507/4/5 511/4/5
f 513/4/5 511/4/5 510/4/5
f 514/4/5 511/4/5 513/4/5
f 517/1/5 516/1/5 515/1/5
f 522/2/5 520/2/5 519/2/5
f 523/2/5 520/2/5 522/2/5
f 526/1/5 525/1/5 524/1/5
f 527/1/5 525/1/5 526/1/5
f 528/2/5 522/2/5 521/2/5
f 529/2/5 522/2/5 528/2/5
f 531/1/5 517/1/5 515/1/5
f 531/1/5 518/1/5 517/1/5
f 532/1/5 518/1/5 531/1/5
f 533/2/5 530/2/5 529/2/5
f 534/2/5 530/2/5 533/2/5
f 535/1/5 531/1/5 515/1/5
f 536/1/5 531/1/5 535/1/5
f 539/1/5 538/1/5 537/1/5
f 540/1/5 538/1/5 539/1/5
f 541/1/5 538/1/5 540/1/5
f 542/1/5 538/1/5 541/1/5
f 545/1/5 544/1/5 543/1/5
f 546/1/5 544/1/5 545/1/5
f 550/1/5 548/1/5 547/1/5
f 551/1/5 550/1/5 549/1/5
f 552/1/5 548/1/5 550/1/5
f 552/1/5 550/1/5 551/1/5
f 556/1/5 554/1/5 553/1/5
f 557/1/5 554/1/5 556/1/5
f 558/1/5 554/1/5 557/1/5
f 559/1/5 556/1/5 555/1/5
f 559/1/5 557/1/5 556/1/5
f 560/1/5 557/1/5 559/1/5
f 562/1/5 557/1/5 560/1/5
f 563/1/5 562/1/5 561/1/5
f 564/1/5 557/1/5 562/1/5
f 564/1/5 562/1/5 563/1/5
f 565/1/5 557/1/5 564/1/5
f 567/1/5 566/1/5 565/1/5
f 567/1/5 565/1/5 564/1/5
f 568/1/5 566/1/5 567/1/5
f 576/1/5 570/1/5 569/1/5
f 577/3/5 571/3/5 570/3/5
f 577/1/5 570/1/5 576/1/5
f 578/1/5 572/1/5 571/1/5
f 578/3/5 571/3/5 577/3/5
f 579/1/5 572/1/5 578/1/5
f 580/3/5 573/3/5 572/3/5
f 580/1/5 572/1/5 579/1/5
f 581/1/5 575/1/5 574/1/5
f 581/3/5 573/3/5 580/3/5
f 581/1/5 574/1/5 573/1/5
f 585/3/5 580/3/5 579/3/5
f 586/1/5 581/1/5 580/1/5
f 586/3/5 580/3/5 585/3/5
f 587/1/5 575/1/5 581/1/5
f 587/1/5 581/1/5 586/1/5
f 588/1/5 583/1/5 582/1/5
f 589/3/5 584/3/5 583/3/5
f 589/1/5 583/1/5 588/1/5
f 590/1/5 586/1/5 585/1/5
f 590/3/5 584/3/5 589/3/5
f 590/1/5 585/1/5 584/1/5
f 591/3/5 587/3/5 586/3/5
f 591/1/5 586/1/5 590/1/5
f 592/1/5 575/1/5 587/1/5
f 592/3/5 587/3/5 591/3/5
f 593/1/5 575/1/5 592/1/5
f 594/1/5 575/1/5 593/1/5
f 600/1/5 596/1/5 595/1/5
f 601/3/5 597/3/5 596/3/5
f 601/1/5 596/1/5 600/1/5
f 601/3/5 598/3/5 597/3/5
f 602/3/5 598/3/5 601/3/5
f 603/1/5 599/1/5 598/1/5
f 603/3/5 598/3/5 602/3/5
f 604/1/5 599/1/5 603/1/5
f 605/4/6 606/4/6 608/4/6
f 608/4/6 606/4/6 609/4/6
f 607/4/6 608/4/6 611/4/6
f 611/4/6 608/4/6 612/4/6
f 609/4/6 610/4/6 613/4/6
f 613/4/6 610/4/6 614/4/6
f 615/4/6 616/4/6 619/4/6
f 619/4/6 616/4/6 620/4/6
f 617/4/6 618/4/6 621/4/6
f 621/4/6 618/4/6 622/4/6
f 620/4/6 621/4/6 623/4/6
f 623/4/6 621/4/6 624/4/6
f 625/4/6 626/4/6 627/4/6
f 627/4/6 626/4/6 628/4/6
f 629/4/6 630/4/6 631/4/6
f 631/4/6 630/4/6 632/4/6
f 635/1/6 636/1/6 637/1/6
f 635/1/6 637/1/6 640/1/6
f 638/1/6 639/1/6 640/1/6
f 637/1/6 638/1/6 640/1/6
f 640/1/6 639/1/6 641/1/6
f 641/1/6 639/1/6 642/1/6
f 633/1/6 634/1/6 643/1/6
f 634/3/6 635/3/6 644/3/6
f 643/1/6 634/1/6 644/1/6
f 635/1/6 640/1/6 645/1/6
f 644/3/6 635/3/6 645/3/6
f 645/1/6 640/1/6 646/1/6
f 647/3/6 648/3/6 651/3/6
f 649/1/6 650/1/6 652/1/6
f 651/3/6 648/3/6 652/3/6
f 648/1/6 649/1/6 652/1/6
f 652/1/6 650/1/6 653/1/6
f 654/3/6 655/3/6 657/3/6
f 655/1/6 656/1/6 658/1/6
f 657/3/6 655/3/6 658/3/6
f 658/1/6 656/1/6 659/1/6
f 659/1/6 656/1/6 660/1/6
f 661/1/6 662/1/6 663/1/6
f 663/1/6 662/1/6 664/1/6
f 665/1/6 666/1/6 667/1/6
f 667/1/6 666/1/6 668/1/6
f 668/1/6 669/1/6 671/1/6
f 669/2/6 670/2/6 672/2/6
f 671/1/6 669/1/6 672/1/6
f 672/2/6 670/2/6 673/2/6
f 673/1/6 674/1/6 677/1/6
f 677/1/6 674/1/6 678/1/6
f 675/1/6 676/1/6 680/1/6
f 676/2/6 677/2/6 681/2/6
f 680/1/6 676/1/6 681/1/6
f 681/2/6 677/2/6 682/2/6
f 679/1/6 680/1/6 683/1/6
f 683/1/6 680/1/6 684/1/6
f 685/1/6 686/1/6 687/1/6
f 687/1/6 686/1/6 688/1/6
f 688/1/6 689/1/6 691/1/6
f 691/1/6 689/1/6 692/1/6
f 691/3/6 692/3/6 693/3/6
f 692/1/6 689/1/6 694/1/6
f 693/3/6 692/3/6 694/3/6
f 693/1/6 694/1/6 696/1/6
f 689/2/6 690/2/6 697/2/6
f 694/1/6 689/1/6 697/1/6
f 696/1/6 694/1/6 697/1/6
f 697/2/6 690/2/6 698/2/6
f 695/1/6 696/1/6 699/1/6
f 699/1/6 696/1/6 700/1/6
f 701/1/6 702/1/6 703/1/6
f 703/1/6 702/1/6 704/1/6
